<mxfile host="app.diagrams.net" modified="2024-01-14T16:07:39.540Z" agent="Mozilla/5.0 (Windows NT 10.0; Win64; x64) AppleWebKit/537.36 (KHTML, like Gecko) Chrome/120.0.0.0 Safari/537.36" etag="DcqZKgTuRzwJlZhYLnAJ" version="22.1.18" type="google">
  <diagram name="Page-1" id="DdPSJ_c9sV7ZSJ3IClvS">
    <mxGraphModel grid="1" page="1" gridSize="10" guides="1" tooltips="1" connect="1" arrows="1" fold="1" pageScale="1" pageWidth="850" pageHeight="1100" math="0" shadow="0">
      <root>
        <mxCell id="0" />
        <mxCell id="1" parent="0" />
        <mxCell id="42NCFGnls3GE2rdPDQEk-40" value="" style="rounded=1;whiteSpace=wrap;html=1;fillColor=#f8cecc;strokeColor=#b85450;opacity=30;" vertex="1" parent="1">
          <mxGeometry x="80" y="500" width="270" height="190" as="geometry" />
        </mxCell>
        <mxCell id="42NCFGnls3GE2rdPDQEk-28" value="" style="rounded=1;whiteSpace=wrap;html=1;fillColor=#fff2cc;strokeColor=#d6b656;opacity=10;strokeWidth=1;" vertex="1" parent="1">
          <mxGeometry x="20" y="100" width="880" height="600" as="geometry" />
        </mxCell>
        <mxCell id="42NCFGnls3GE2rdPDQEk-25" value="" style="rounded=1;whiteSpace=wrap;html=1;fillColor=#dae8fc;strokeColor=#6c8ebf;opacity=30;" vertex="1" parent="1">
          <mxGeometry x="-480" y="540" width="269" height="250" as="geometry" />
        </mxCell>
        <mxCell id="42NCFGnls3GE2rdPDQEk-6" value="" style="rounded=1;whiteSpace=wrap;html=1;fillColor=#f8cecc;strokeColor=#b85450;opacity=30;" vertex="1" parent="1">
          <mxGeometry x="310" y="160" width="540" height="300" as="geometry" />
        </mxCell>
        <mxCell id="42NCFGnls3GE2rdPDQEk-4" value="&lt;div style=&quot;font-size: 8px;&quot;&gt;&lt;span style=&quot;background-color: initial;&quot;&gt;&lt;font style=&quot;font-size: 8px;&quot;&gt;Raspberry Pi Zero W&lt;/font&gt;&lt;/span&gt;&lt;/div&gt;&lt;font style=&quot;font-size: 8px;&quot;&gt;rpi-beta.local&lt;/font&gt;" style="shape=image;html=1;verticalAlign=top;verticalLabelPosition=bottom;labelBackgroundColor=none;imageAspect=0;aspect=fixed;image=https://cdn1.iconfinder.com/data/icons/fruit-136/64/Fruit_iconfree_Filled_Outline_raspberry-healthy-organic-food-fruit_icon-128.png;align=left;" vertex="1" parent="1">
          <mxGeometry x="330" y="180" width="23.62" height="23.62" as="geometry" />
        </mxCell>
        <mxCell id="42NCFGnls3GE2rdPDQEk-7" value="Telegram Bot API" style="shape=image;html=1;verticalAlign=top;verticalLabelPosition=bottom;labelBackgroundColor=none;imageAspect=0;aspect=fixed;image=https://cdn3.iconfinder.com/data/icons/social-media-chamfered-corner/154/telegram-128.png" vertex="1" parent="1">
          <mxGeometry x="-381" y="580" width="40" height="40" as="geometry" />
        </mxCell>
        <mxCell id="42NCFGnls3GE2rdPDQEk-9" value="User" style="shape=umlActor;verticalLabelPosition=bottom;verticalAlign=top;html=1;outlineConnect=0;" vertex="1" parent="1">
          <mxGeometry x="-465" y="1000" width="30" height="60" as="geometry" />
        </mxCell>
        <mxCell id="42NCFGnls3GE2rdPDQEk-10" value="Desktop Telegram&lt;br&gt;Client" style="shape=image;html=1;verticalAlign=top;verticalLabelPosition=bottom;labelBackgroundColor=#ffffff;imageAspect=0;aspect=fixed;image=https://cdn4.iconfinder.com/data/icons/48-bubbles/48/29.Mac-128.png" vertex="1" parent="1">
          <mxGeometry x="-480" y="850" width="50" height="50" as="geometry" />
        </mxCell>
        <mxCell id="42NCFGnls3GE2rdPDQEk-12" value="Android Telegram&lt;br&gt;Client" style="sketch=0;pointerEvents=1;shadow=0;dashed=0;html=1;strokeColor=none;fillColor=#434445;aspect=fixed;labelPosition=center;verticalLabelPosition=bottom;verticalAlign=top;align=center;outlineConnect=0;shape=mxgraph.vvd.phone;" vertex="1" parent="1">
          <mxGeometry x="-301" y="870" width="23.6" height="40" as="geometry" />
        </mxCell>
        <mxCell id="42NCFGnls3GE2rdPDQEk-14" value="Telegram API" style="shape=image;html=1;verticalAlign=top;verticalLabelPosition=bottom;labelBackgroundColor=none;imageAspect=0;aspect=fixed;image=https://cdn3.iconfinder.com/data/icons/social-media-chamfered-corner/154/telegram-128.png" vertex="1" parent="1">
          <mxGeometry x="-381" y="720" width="40" height="40" as="geometry" />
        </mxCell>
        <mxCell id="42NCFGnls3GE2rdPDQEk-18" value="" style="endArrow=classic;html=1;rounded=0;" edge="1" parent="1">
          <mxGeometry width="50" height="50" relative="1" as="geometry">
            <mxPoint x="-421" y="850" as="sourcePoint" />
            <mxPoint x="-371" y="800" as="targetPoint" />
          </mxGeometry>
        </mxCell>
        <mxCell id="42NCFGnls3GE2rdPDQEk-19" value="" style="endArrow=classic;html=1;rounded=0;" edge="1" parent="1">
          <mxGeometry width="50" height="50" relative="1" as="geometry">
            <mxPoint x="-291" y="860" as="sourcePoint" />
            <mxPoint x="-361" y="800" as="targetPoint" />
          </mxGeometry>
        </mxCell>
        <mxCell id="42NCFGnls3GE2rdPDQEk-20" value="" style="endArrow=classic;html=1;rounded=0;" edge="1" parent="1">
          <mxGeometry width="50" height="50" relative="1" as="geometry">
            <mxPoint x="-361" y="700" as="sourcePoint" />
            <mxPoint x="-361" y="650" as="targetPoint" />
          </mxGeometry>
        </mxCell>
        <mxCell id="42NCFGnls3GE2rdPDQEk-21" value="" style="endArrow=classic;html=1;rounded=0;" edge="1" parent="1" target="42NCFGnls3GE2rdPDQEk-89">
          <mxGeometry width="50" height="50" relative="1" as="geometry">
            <mxPoint x="-331" y="600" as="sourcePoint" />
            <mxPoint x="79" y="600" as="targetPoint" />
          </mxGeometry>
        </mxCell>
        <mxCell id="42NCFGnls3GE2rdPDQEk-22" value="" style="endArrow=classic;html=1;rounded=0;exitX=0;exitY=0.25;exitDx=0;exitDy=0;exitPerimeter=0;" edge="1" parent="1" source="42NCFGnls3GE2rdPDQEk-89">
          <mxGeometry width="50" height="50" relative="1" as="geometry">
            <mxPoint x="79" y="590" as="sourcePoint" />
            <mxPoint x="-331" y="590" as="targetPoint" />
          </mxGeometry>
        </mxCell>
        <mxCell id="42NCFGnls3GE2rdPDQEk-23" value="poll updates" style="text;html=1;strokeColor=none;fillColor=none;align=center;verticalAlign=middle;whiteSpace=wrap;rounded=0;" vertex="1" parent="1">
          <mxGeometry x="-166" y="560" width="76" height="30" as="geometry" />
        </mxCell>
        <mxCell id="42NCFGnls3GE2rdPDQEk-24" value="updates (JSON)" style="text;html=1;strokeColor=none;fillColor=none;align=center;verticalAlign=middle;whiteSpace=wrap;rounded=0;" vertex="1" parent="1">
          <mxGeometry x="-166" y="600" width="60" height="30" as="geometry" />
        </mxCell>
        <mxCell id="42NCFGnls3GE2rdPDQEk-26" value="Telegram Servers" style="text;html=1;strokeColor=none;fillColor=none;align=center;verticalAlign=middle;whiteSpace=wrap;rounded=0;fontStyle=1" vertex="1" parent="1">
          <mxGeometry x="-470" y="550" width="60" height="30" as="geometry" />
        </mxCell>
        <mxCell id="42NCFGnls3GE2rdPDQEk-29" value="&lt;font style=&quot;font-size: 23px;&quot;&gt;&lt;b&gt;LAN&lt;/b&gt;&lt;/font&gt;" style="text;html=1;strokeColor=none;fillColor=none;align=center;verticalAlign=middle;whiteSpace=wrap;rounded=0;" vertex="1" parent="1">
          <mxGeometry x="70" y="120" width="60" height="30" as="geometry" />
        </mxCell>
        <mxCell id="42NCFGnls3GE2rdPDQEk-30" value="User" style="shape=umlActor;verticalLabelPosition=bottom;verticalAlign=top;html=1;outlineConnect=0;" vertex="1" parent="1">
          <mxGeometry x="-304.2" y="1000" width="30" height="60" as="geometry" />
        </mxCell>
        <mxCell id="42NCFGnls3GE2rdPDQEk-31" value="" style="endArrow=classic;html=1;rounded=0;" edge="1" parent="1">
          <mxGeometry width="50" height="50" relative="1" as="geometry">
            <mxPoint x="-450" y="990" as="sourcePoint" />
            <mxPoint x="-450" y="950" as="targetPoint" />
          </mxGeometry>
        </mxCell>
        <mxCell id="42NCFGnls3GE2rdPDQEk-32" value="" style="endArrow=classic;html=1;rounded=0;" edge="1" parent="1">
          <mxGeometry width="50" height="50" relative="1" as="geometry">
            <mxPoint x="-289.4" y="990" as="sourcePoint" />
            <mxPoint x="-289.4" y="950" as="targetPoint" />
          </mxGeometry>
        </mxCell>
        <mxCell id="42NCFGnls3GE2rdPDQEk-36" value="*chatting with bot*" style="text;html=1;strokeColor=none;fillColor=none;align=center;verticalAlign=middle;whiteSpace=wrap;rounded=0;" vertex="1" parent="1">
          <mxGeometry x="-430" y="940" width="131" height="30" as="geometry" />
        </mxCell>
        <mxCell id="42NCFGnls3GE2rdPDQEk-41" value="" style="rounded=1;whiteSpace=wrap;html=1;fillColor=#f8cecc;strokeColor=#b85450;opacity=30;" vertex="1" parent="1">
          <mxGeometry x="40" y="210" width="190" height="240" as="geometry" />
        </mxCell>
        <mxCell id="42NCFGnls3GE2rdPDQEk-1" value="&lt;font style=&quot;font-size: 8px;&quot;&gt;Brother&amp;nbsp;MFCL2710DW&lt;br&gt;192.168.0.194&lt;/font&gt;" style="html=1;verticalLabelPosition=bottom;align=left;labelBackgroundColor=none;verticalAlign=top;strokeWidth=2;strokeColor=#0080F0;shadow=0;dashed=0;shape=mxgraph.ios7.icons.printer;" vertex="1" parent="1">
          <mxGeometry x="50" y="220" width="20" height="15.5" as="geometry" />
        </mxCell>
        <mxCell id="42NCFGnls3GE2rdPDQEk-43" value="&lt;div style=&quot;font-size: 8px;&quot;&gt;&lt;span style=&quot;background-color: initial;&quot;&gt;&lt;font style=&quot;font-size: 8px;&quot;&gt;Raspberry Pi Zero W&lt;/font&gt;&lt;/span&gt;&lt;/div&gt;&lt;font style=&quot;font-size: 8px;&quot;&gt;rpi-alpha.local&lt;/font&gt;" style="shape=image;html=1;verticalAlign=top;verticalLabelPosition=bottom;labelBackgroundColor=none;imageAspect=0;aspect=fixed;image=https://cdn1.iconfinder.com/data/icons/fruit-136/64/Fruit_iconfree_Filled_Outline_raspberry-healthy-organic-food-fruit_icon-128.png;align=left;" vertex="1" parent="1">
          <mxGeometry x="88.19" y="500" width="23.62" height="23.62" as="geometry" />
        </mxCell>
        <mxCell id="42NCFGnls3GE2rdPDQEk-45" value="Brother Printer&lt;br&gt;API&lt;br&gt;&lt;i&gt;&lt;b&gt;:515&lt;/b&gt;&lt;/i&gt;" style="html=1;verticalLabelPosition=bottom;align=center;labelBackgroundColor=none;verticalAlign=top;strokeWidth=2;strokeColor=#0080F0;shadow=0;dashed=0;shape=mxgraph.ios7.icons.printer;" vertex="1" parent="1">
          <mxGeometry x="170" y="334.5" width="30" height="25.5" as="geometry" />
        </mxCell>
        <mxCell id="42NCFGnls3GE2rdPDQEk-82" value="Printer API Service&lt;br&gt;:8080" style="outlineConnect=0;dashed=0;verticalLabelPosition=bottom;verticalAlign=top;align=center;html=1;shape=mxgraph.aws3.android;fillColor=#EE472A;gradientColor=none;" vertex="1" parent="1">
          <mxGeometry x="570" y="380" width="50" height="50" as="geometry" />
        </mxCell>
        <mxCell id="42NCFGnls3GE2rdPDQEk-83" value="" style="endArrow=classic;html=1;rounded=0;entryX=1.097;entryY=0.439;entryDx=0;entryDy=0;entryPerimeter=0;" edge="1" parent="1" target="42NCFGnls3GE2rdPDQEk-45">
          <mxGeometry width="50" height="50" relative="1" as="geometry">
            <mxPoint x="570" y="400" as="sourcePoint" />
            <mxPoint x="415.1999999999998" y="367.5" as="targetPoint" />
          </mxGeometry>
        </mxCell>
        <mxCell id="42NCFGnls3GE2rdPDQEk-89" value="Brother Bot&lt;br&gt;Java Process" style="outlineConnect=0;dashed=0;verticalLabelPosition=bottom;verticalAlign=top;align=center;html=1;shape=mxgraph.aws3.android;fillColor=#EE472A;gradientColor=none;" vertex="1" parent="1">
          <mxGeometry x="190" y="577" width="50" height="50" as="geometry" />
        </mxCell>
        <mxCell id="42NCFGnls3GE2rdPDQEk-92" style="edgeStyle=orthogonalEdgeStyle;rounded=0;orthogonalLoop=1;jettySize=auto;html=1;exitX=1;exitY=0.5;exitDx=0;exitDy=0;exitPerimeter=0;entryX=0.5;entryY=1;entryDx=0;entryDy=0;entryPerimeter=0;" edge="1" parent="1" source="42NCFGnls3GE2rdPDQEk-89" target="42NCFGnls3GE2rdPDQEk-82">
          <mxGeometry relative="1" as="geometry" />
        </mxCell>
        <mxCell id="42NCFGnls3GE2rdPDQEk-95" value="get jobs, printers&lt;br&gt;submit printer job" style="text;html=1;strokeColor=none;fillColor=none;align=center;verticalAlign=middle;whiteSpace=wrap;rounded=0;" vertex="1" parent="1">
          <mxGeometry x="404" y="610" width="116" height="30" as="geometry" />
        </mxCell>
        <mxCell id="42NCFGnls3GE2rdPDQEk-96" value="GET /printers&lt;br&gt;GET /printers/{printer}&lt;br&gt;GET /printers/{printer}/jobs&lt;br&gt;POST /printers/{printer}/jobs&lt;br&gt;GET /printers/{printer}/jobs/{job}&lt;br&gt;&lt;div style=&quot;&quot;&gt;&lt;br&gt;&lt;/div&gt;" style="text;html=1;strokeColor=none;fillColor=none;align=left;verticalAlign=middle;whiteSpace=wrap;rounded=0;" vertex="1" parent="1">
          <mxGeometry x="618.74" y="520" width="181.26" height="90" as="geometry" />
        </mxCell>
        <mxCell id="42NCFGnls3GE2rdPDQEk-110" value="print doc&lt;br&gt;get jobs..." style="text;html=1;strokeColor=none;fillColor=none;align=center;verticalAlign=middle;whiteSpace=wrap;rounded=0;" vertex="1" parent="1">
          <mxGeometry x="470" y="385" width="60" height="30" as="geometry" />
        </mxCell>
      </root>
    </mxGraphModel>
  </diagram>
</mxfile>
